<svg width="48" height="48" viewBox="0 0 48 48" fill="none" xmlns="http://www.w3.org/2000/svg">
<g filter="url(#filter0_d_102_1579)">
<path d="M6.09835 16.0521C6.47257 13.5791 8.65694 12 11.158 12H36.3153C39.0685 12 41.4623 13.8769 41.8604 16.6012C42.1952 18.8922 42.5 21.8445 42.5 25C42.5 28.1555 42.1952 31.1078 41.8604 33.3988C41.4623 36.1231 39.0685 38 36.3153 38H11.158C8.65693 38 6.47257 36.4209 6.09835 33.9479C5.78017 31.8454 5.5 28.8896 5.5 25C5.5 21.1104 5.78017 18.1546 6.09835 16.0521Z" fill="#FF0000"/>
</g>
<path d="M31 25L20.5 31.0622L20.5 18.9378L31 25Z" fill="white"/>
<defs>
<filter id="filter0_d_102_1579" x="1.5" y="12" width="45" height="34" filterUnits="userSpaceOnUse" color-interpolation-filters="sRGB">
<feFlood flood-opacity="0" result="BackgroundImageFix"/>
<feColorMatrix in="SourceAlpha" type="matrix" values="0 0 0 0 0 0 0 0 0 0 0 0 0 0 0 0 0 0 127 0" result="hardAlpha"/>
<feOffset dy="4"/>
<feGaussianBlur stdDeviation="2"/>
<feComposite in2="hardAlpha" operator="out"/>
<feColorMatrix type="matrix" values="0 0 0 0 0 0 0 0 0 0 0 0 0 0 0 0 0 0 0.25 0"/>
<feBlend mode="normal" in2="BackgroundImageFix" result="effect1_dropShadow_102_1579"/>
<feBlend mode="normal" in="SourceGraphic" in2="effect1_dropShadow_102_1579" result="shape"/>
</filter>
</defs>
</svg>
